# xmcd
#
# Track frame offsets:
#	150
#	14805
#	25944
#	38095
#	52625
#	66272
#	78600
#	100455
#	112202
#	125004
#	139317
#	152717
#	168040
#	182362
#	193882
#	206760
#	224467
#	239272
#	251617
#	261687
#
# Disc length: 3684 seconds
#
# Revision: 1
# Processed by: cddbd v1.4b41PL1 Copyright (c) Steve Scherf et al.
# Submitted via: audiograbber 1.80
#
DISCID=2f0e6214
DTITLE=Various Artist - Country Pride Disc One
DYEAR=1900
DGENRE=
TTITLE0=Eddie Rabbitt - American Boy
TTITLE1=Roger Miller - King Of The Road
TTITLE2=Merle Haggard - I Take A Lot Of Pride In What I Am
TTITLE3=Jimmy Dean - P.T. 109
TTITLE4=Marty Stuart - Let There Be Country
TTITLE5=Ricky Van Shelton - Working Man Blues
TTITLE6=Tanya Tucker - Texas (When I Die)
TTITLE7=Roy Acuff and His Smoky Mountain Boys - Wabash Cannonball
TTITLE8=Bobby Bare - God Bless America Again
TTITLE9=Johnny Cash - Ragged Old Flag
TTITLE10=Glen Campbell - Southern Nights
TTITLE11=Waylon Jennings - America
TTITLE12=Ricky Skaggs - Highway 40 Blues
TTITLE13=Mel Tillis - Southern Rains
TTITLE14=Tommy Cash - Six White Horses
TTITLE15=David Allan Coe - Son Of The South
TTITLE16=Nitty Gritty Dirt Band - Long Hard Road (The Sharecropper's Dream)
TTITLE17=Elton Britt - There's A Star Spangles Banner Waving Somewhere
TTITLE18=Larry Gatlin - Delta Dirt
TTITLE19=Lee Greenwood - God Bless The USA
EXTD=
EXTT0=
EXTT1=
EXTT2=
EXTT3=
EXTT4=
EXTT5=
EXTT6=
EXTT7=
EXTT8=
EXTT9=
EXTT10=
EXTT11=
EXTT12=
EXTT13=
EXTT14=
EXTT15=
EXTT16=
EXTT17=
EXTT18=
EXTT19=
PLAYORDER=
